# Blender 3.5.1
# www.blender.org
mtllib Missile.mtl
o Cube
v 1.000000 0.764276 -0.763886
v 1.000000 -0.761828 -0.766335
v 1.000000 0.761491 0.766671
v -0.125738 0.777387 -0.778938
v -0.125738 -0.777387 -0.778938
v -0.125738 0.777387 0.778938
v -0.125738 -0.777387 0.778938
v -0.125738 -1.000000 0.000000
v 1.000000 1.000000 0.000000
v -0.125738 1.000000 0.000000
v 1.000000 -1.000000 0.000000
v -0.125738 1.000000 -0.500000
v 1.000000 -1.000000 -0.500000
v -0.125738 -1.000000 -0.500000
v 1.000000 1.000000 -0.500000
v -0.125738 -1.000000 0.500000
v 1.000000 1.000000 0.500000
v -0.125738 1.000000 0.500000
v 1.000000 -1.000000 0.500000
v 1.000000 0.000000 -1.000000
v -0.125738 0.000000 1.000000
v 1.000000 0.000000 1.000000
v -0.125738 0.000000 -1.000000
v 1.593689 0.000000 -0.500000
v 1.593689 0.000000 0.500000
v -0.125738 0.500000 1.000000
v 1.000000 0.500000 -1.000000
v 1.000000 0.500000 1.000000
v -0.125738 0.500000 -1.000000
v 1.593689 0.500000 0.000000
v 1.593689 0.500000 -0.500000
v 1.593689 0.500000 0.500000
v 1.000000 -0.500000 -1.000000
v 1.000000 -0.500000 1.000000
v -0.125738 -0.500000 -1.000000
v 1.593689 -0.500000 0.000000
v 1.593689 -0.500000 -0.500000
v 1.593689 -0.500000 0.500000
v -0.125738 -0.500000 1.000000
v -0.125738 0.777387 -0.778938
v -0.125738 -0.777387 -0.778938
v -0.125738 0.777387 0.778938
v -0.125738 -0.777387 0.778938
v -0.125738 -1.000000 0.000000
v -0.125738 1.000000 0.000000
v -0.125738 1.000000 -0.500000
v -0.125738 -1.000000 -0.500000
v -0.125738 -1.000000 0.500000
v -0.125738 1.000000 0.500000
v -0.125738 0.000000 1.000000
v -0.125738 0.000000 -1.000000
v -0.125738 0.500000 1.000000
v -0.125738 0.500000 -1.000000
v -0.125738 -0.500000 -1.000000
v -0.125738 -0.500000 1.000000
v -0.191419 -0.905644 0.452822
v -0.191419 -0.704036 0.705441
v -0.191419 0.452822 0.905644
v -0.191419 0.704036 0.705441
v -0.191419 -0.452822 -0.905644
v -0.191419 -0.704036 -0.705441
v -0.191419 0.905644 -0.452822
v -0.191419 0.704036 -0.705441
v -0.191419 -0.905644 -0.452822
v -0.191419 -0.905644 -0.000000
v -0.191419 0.905644 0.452822
v -0.191419 0.905644 -0.000000
v -0.191419 -0.452822 0.905644
v -0.191419 0.000000 0.905644
v -0.191419 0.452822 -0.905644
v -0.191419 0.000000 -0.905644
v -0.402781 -0.905644 0.452822
v -0.402781 -0.704036 0.705441
v -0.402781 0.452822 0.905644
v -0.402781 0.704036 0.705441
v -0.402781 -0.452822 -0.905644
v -0.402781 -0.704036 -0.705441
v -0.402781 0.905644 -0.452822
v -0.402781 0.704036 -0.705441
v -0.402781 -0.905644 -0.452822
v -0.402781 -0.905644 -0.000000
v -0.402781 0.905644 0.452822
v -0.402781 0.905644 -0.000000
v -0.402781 -0.452822 0.905644
v -0.402781 0.000000 0.905644
v -0.402781 0.452822 -0.905644
v -0.402781 0.000000 -0.905644
v -0.481593 -1.000000 0.500000
v -0.481593 -0.777387 0.778938
v -0.481593 0.500000 1.000000
v -0.481593 0.777387 0.778938
v -0.481593 -0.500000 -1.000000
v -0.481593 -0.777387 -0.778938
v -0.481593 1.000000 -0.500000
v -0.481593 0.777387 -0.778938
v -0.481593 -1.000000 -0.500000
v -0.481593 -1.000000 0.000000
v -0.481593 1.000000 0.500000
v -0.481593 1.000000 0.000000
v -0.481593 -0.500000 1.000000
v -0.481593 0.000000 1.000000
v -0.481593 0.500000 -1.000000
v -0.481593 0.000000 -1.000000
v -0.794034 -1.000000 0.500000
v -0.794034 -0.777387 0.778938
v -0.794034 0.500000 1.000000
v -0.794034 0.777387 0.778938
v -0.794034 -0.500000 -1.000000
v -0.794034 -0.777387 -0.778938
v -0.794034 1.000000 -0.500000
v -0.794034 0.777387 -0.778938
v -0.794034 -1.000000 -0.500000
v -0.794034 -1.000000 0.000000
v -0.794034 1.000000 0.500000
v -0.794034 1.000000 0.000000
v -0.794034 -0.500000 1.000000
v -0.794034 0.000000 1.000000
v -0.794034 0.500000 -1.000000
v -0.794034 0.000000 -1.000000
v -0.799132 0.569592 -0.595957
v -0.792743 0.000000 -0.838894
v -0.799132 -0.569592 -0.595957
v -0.799132 0.569592 0.595957
v -0.792743 0.000000 0.838894
v -0.799132 -0.569592 0.595957
v -0.792743 -0.838895 0.000000
v -0.792743 0.838895 0.000000
v -0.440963 0.471150 -0.492959
v -0.435678 0.000000 -0.693909
v -0.440963 -0.471150 -0.492959
v -0.440963 0.471150 0.492959
v -0.435678 0.000000 0.693909
v -0.440963 -0.471150 0.492959
v -0.435678 -0.693910 0.000000
v -0.435678 0.693910 0.000000
v 1.000000 -0.761044 0.767119
vn 0.0178 0.7453 0.6665
vn -0.0000 0.6658 0.7461
vn -0.0000 -0.7816 0.6238
vn 0.5321 0.5637 0.6318
vn -0.0000 0.6663 -0.7457
vn 0.6442 0.7649 -0.0000
vn -0.0000 -1.0000 -0.0000
vn -0.0000 1.0000 -0.0000
vn -0.0000 0.7458 -0.6662
vn -0.0000 -0.7816 -0.6238
vn 0.5319 0.5642 -0.6315
vn 1.0000 -0.0000 -0.0000
vn 0.6442 -0.0000 -0.7649
vn -0.0000 -0.0000 -1.0000
vn 0.6442 -0.0000 0.7649
vn -0.0000 -0.0000 1.0000
vn 0.0173 -0.6231 0.7819
vn -0.8207 -0.5713 -0.0000
vn 0.5316 -0.6313 0.5647
vn 0.0174 -0.6231 -0.7819
vn 0.6442 -0.7649 -0.0000
vn -0.0000 -0.6232 -0.7820
vn -0.8436 -0.3346 -0.4199
vn -0.8436 0.4197 0.3350
vn -0.8207 -0.0000 0.5713
vn -0.8207 -0.0000 -0.5713
vn -0.8436 -0.4197 -0.3350
vn -0.8207 0.5713 -0.0000
vn -0.8436 -0.4197 0.3350
vn -0.8436 0.3346 -0.4199
vn -0.8436 0.4197 -0.3350
vn -0.8436 -0.3346 0.4199
vn -0.8436 0.3346 0.4199
vn 0.7675 -0.0000 0.6411
vn -0.0000 0.7816 -0.6238
vn -0.0000 0.6232 -0.7820
vn -0.0000 -0.6232 0.7820
vn -0.0000 0.6232 0.7820
vn -0.0000 0.7816 0.6238
vn 0.7947 0.4745 -0.3786
vn 0.7675 -0.0000 -0.6411
vn 0.7675 -0.6411 -0.0000
vn 0.7675 0.6411 -0.0000
vn 0.7947 0.3783 -0.4747
vn 0.7947 -0.4745 -0.3786
vn 0.7947 -0.4745 0.3786
vn 0.7947 -0.3783 0.4747
vn 0.7947 0.3783 0.4747
vn 0.7947 0.4745 0.3786
vn 0.7947 -0.3783 -0.4747
vn -0.9998 -0.0144 -0.0115
vn -1.0000 -0.0080 -0.0000
vn -0.9998 0.0144 0.0115
vn -1.0000 -0.0000 -0.0080
vn -0.9998 -0.0117 0.0146
vn -1.0000 0.0080 -0.0000
vn -1.0000 -0.0000 0.0080
vn -0.9998 0.0117 -0.0146
vn -0.9999 -0.0105 -0.0060
vn -0.9998 -0.0144 0.0115
vn -0.3494 -0.3709 0.8604
vn -0.9998 0.0117 0.0146
vn -0.9998 -0.0117 -0.0146
vn -0.9998 0.0144 -0.0115
vn -0.9997 -0.0000 0.0263
vn -0.3465 0.8534 0.3894
vn -0.3465 0.8534 -0.3894
vn -0.3494 -0.3709 -0.8604
vn -0.3494 0.3709 0.8604
vn -0.3465 -0.8534 0.3894
vn -0.3465 -0.8534 -0.3894
vn -0.3494 0.3709 -0.8604
vn 0.5317 -0.6313 -0.5646
vn 0.0173 0.6231 0.7819
vn 0.0178 -0.7452 0.6666
vn 0.5317 0.6313 0.5646
vn 0.0177 0.6231 -0.7819
vn 0.0174 0.7815 -0.6237
vn 0.0178 -0.7453 -0.6665
vn 0.5319 0.6315 -0.5641
vn -0.0000 -0.6657 0.7462
vn 0.5321 -0.5636 0.6318
vn -0.0000 -0.6658 -0.7461
vn -0.9999 0.0105 0.0060
vn -0.9999 0.0105 -0.0060
vn -0.9999 -0.0063 0.0115
vn -0.9999 0.0063 0.0115
vn -0.9999 -0.0105 0.0060
vn -0.9999 0.0063 -0.0115
vn -0.9999 -0.0063 -0.0115
vn -0.9997 0.0237 -0.0000
vn -0.9997 -0.0000 -0.0263
vn -1.0000 -0.0000 -0.0000
vn -0.9997 -0.0237 -0.0000
vn 0.5320 -0.5638 -0.6317
vt 0.691430 0.158997
vt 0.750461 0.736074
vt 0.749884 0.410097
vt 0.826945 0.158941
vt 0.241407 0.537269
vt 0.750311 0.600559
vt 0.054268 0.537269
vt 0.750301 0.545611
vt 0.241407 0.349757
vt 0.277496 0.826959
vt 0.054268 0.349757
vt 0.663142 0.601714
vt 0.027474 0.443513
vt 0.690159 0.241955
vt 0.563877 0.147838
vt 0.825611 0.241955
vt 0.268202 0.443513
vt 0.663142 0.737165
vt 0.323149 0.147838
vt 0.826770 0.201367
vt 0.268202 0.503695
vt 0.323149 0.087656
vt 0.707459 0.736089
vt 0.707459 0.600638
vt 0.027474 0.503695
vt 0.563877 0.087656
vt 0.691318 0.201367
vt 0.234645 0.826881
vt 0.618825 0.602790
vt 0.027474 0.383331
vt 0.792727 0.409984
vt 0.563877 0.208020
vt 0.689000 0.282543
vt 0.792727 0.545436
vt 0.824452 0.282543
vt 0.268202 0.383331
vt 0.234645 0.691430
vt 0.618825 0.738241
vt 0.323149 0.208020
vt 0.443513 0.027474
vt 0.690360 0.071909
vt 0.663265 0.544478
vt 0.147838 0.323149
vt 0.663265 0.409026
vt 0.443513 0.268202
vt 0.825812 0.071909
vt 0.147838 0.563877
vt 0.443513 0.087656
vt 0.443513 0.208020
vt 0.707705 0.545537
vt 0.208020 0.323149
vt 0.503695 0.027474
vt 0.691418 0.116344
vt 0.503695 0.268202
vt 0.707705 0.410084
vt 0.826870 0.116344
vt 0.208020 0.563877
vt 0.503695 0.147838
vt 0.618825 0.156932
vt 0.503695 0.087656
vt 0.748287 0.337491
vt 0.503695 0.208020
vt 0.383331 0.027474
vt 0.689301 0.027474
vt 0.792493 0.736184
vt 0.618825 0.407967
vt 0.383331 0.268202
vt 0.319679 0.691335
vt 0.824753 0.027474
vt 0.792493 0.600733
vt 0.087656 0.563877
vt 0.383331 0.147838
vt 0.383331 0.087656
vt 0.748176 0.808694
vt 0.275363 0.618825
vt 0.383331 0.208020
vt 0.618825 0.543419
vt 0.319679 0.826785
vt 0.087656 0.323149
vt 0.737039 0.863670
vt 0.038831 0.389010
vt 0.967744 0.495085
vt 0.063097 0.358604
vt 0.736924 0.902478
vt 0.202341 0.334506
vt 0.966497 0.681070
vt 0.232578 0.358604
vt 0.966876 0.719645
vt 0.967744 0.337792
vt 0.093334 0.552520
vt 0.497073 0.849827
vt 0.967134 0.375990
vt 0.063097 0.528423
vt 0.256844 0.498017
vt 0.495060 0.692344
vt 0.232578 0.528423
vt 0.494947 0.730767
vt 0.038831 0.498017
vt 0.966746 0.414796
vt 0.038831 0.443513
vt 0.967245 0.454941
vt 0.497073 0.618825
vt 0.256844 0.389010
vt 0.967480 0.758064
vt 0.256844 0.443513
vt 0.496067 0.655584
vt 0.967480 0.600559
vt 0.093334 0.334506
vt 0.737039 0.940681
vt 0.147838 0.334506
vt 0.966989 0.640814
vt 0.202341 0.552520
vt 0.495060 0.769345
vt 0.147838 0.552520
vt 0.496067 0.809586
vt 0.711608 0.863642
vt 0.942314 0.494784
vt 0.334506 0.498017
vt 0.711493 0.902450
vt 0.358773 0.528423
vt 0.941067 0.681364
vt 0.498017 0.552520
vt 0.941446 0.719940
vt 0.528254 0.528423
vt 0.942314 0.337491
vt 0.471641 0.849857
vt 0.389010 0.334506
vt 0.941704 0.375689
vt 0.358773 0.358604
vt 0.469629 0.692374
vt 0.552520 0.389010
vt 0.469515 0.730797
vt 0.528254 0.358604
vt 0.941316 0.414495
vt 0.334506 0.389010
vt 0.941815 0.454639
vt 0.334506 0.443513
vt 0.471641 0.618855
vt 0.942051 0.758358
vt 0.552520 0.498017
vt 0.470635 0.655614
vt 0.552520 0.443513
vt 0.942051 0.600854
vt 0.711608 0.940652
vt 0.389010 0.552520
vt 0.443513 0.552520
vt 0.941559 0.641109
vt 0.469629 0.769375
vt 0.498017 0.334506
vt 0.470635 0.809616
vt 0.443513 0.334506
vt 0.656545 0.863684
vt 0.323149 0.503695
vt 0.886368 0.511617
vt 0.349944 0.537269
vt 0.656418 0.906535
vt 0.503695 0.563877
vt 0.885032 0.689458
vt 0.537082 0.537269
vt 0.885451 0.732052
vt 0.886368 0.337936
vt 0.383331 0.323149
vt 0.414568 0.873894
vt 0.349944 0.349757
vt 0.885695 0.380114
vt 0.563877 0.383331
vt 0.412345 0.700004
vt 0.537082 0.349757
vt 0.412220 0.742430
vt 0.323149 0.383331
vt 0.885266 0.422963
vt 0.323149 0.443513
vt 0.885817 0.467290
vt 0.414568 0.618825
vt 0.563877 0.503695
vt 0.886119 0.774473
vt 0.413456 0.659414
vt 0.563877 0.443513
vt 0.886119 0.600559
vt 0.383331 0.563877
vt 0.656545 0.948718
vt 0.443513 0.563877
vt 0.885576 0.645008
vt 0.503695 0.323149
vt 0.412345 0.785027
vt 0.443513 0.323149
vt 0.413456 0.829460
vt 0.618952 0.863642
vt 0.848777 0.511172
vt 0.027474 0.087656
vt 0.054268 0.054082
vt 0.618825 0.906493
vt 0.847441 0.689894
vt 0.208020 0.027474
vt 0.241407 0.054082
vt 0.847860 0.732488
vt 0.376974 0.873939
vt 0.848777 0.337491
vt 0.087656 0.268202
vt 0.054268 0.241594
vt 0.848104 0.379668
vt 0.374752 0.700048
vt 0.268202 0.208020
vt 0.241407 0.241594
vt 0.374626 0.742475
vt 0.847675 0.422518
vt 0.027474 0.208020
vt 0.848226 0.466845
vt 0.027474 0.147838
vt 0.376974 0.618869
vt 0.848527 0.774909
vt 0.268202 0.087656
vt 0.268202 0.147838
vt 0.375863 0.659459
vt 0.618952 0.948676
vt 0.848528 0.600995
vt 0.087656 0.027474
vt 0.147838 0.027474
vt 0.847984 0.645444
vt 0.374752 0.785071
vt 0.208020 0.268202
vt 0.147838 0.268202
vt 0.375863 0.829505
vt 0.216396 0.219569
vt 0.125106 0.896535
vt 0.147838 0.248810
vt 0.125139 0.828618
vt 0.027517 0.971268
vt 0.079280 0.219569
vt 0.027474 0.900925
vt 0.216396 0.076106
vt 0.847441 0.904610
vt 0.147838 0.046865
vt 0.847475 0.972526
vt 0.881936 0.027474
vt 0.079280 0.076106
vt 0.881893 0.097814
vt 0.046865 0.147838
vt 0.027517 0.828618
vt 0.881936 0.170125
vt 0.248810 0.147838
vt 0.125139 0.971287
vt 0.847475 0.829857
vt 0.130830 0.773670
vt 0.167748 0.897695
vt 0.070158 0.959551
vt 0.167775 0.841516
vt 0.069192 0.772359
vt 0.027474 0.726965
vt 0.070122 0.901365
vt 0.179697 0.665530
vt 0.890083 0.903449
vt 0.137979 0.620136
vt 0.890111 0.959628
vt 0.924577 0.039193
vt 0.076341 0.618825
vt 0.924541 0.097377
vt 0.924577 0.157190
vt 0.027474 0.661854
vt 0.070158 0.841555
vt 0.167775 0.959528
vt 0.179697 0.730641
vt 0.890111 0.841616
vt 0.277780 0.691445
s 0
usemtl Material
f 17/31/1 6/8/1 3/3/1
f 3/3/2 26/50/2 28/55/2
f 19/37/3 7/10/3 16/28/3
f 32/61/4 3/3/4 28/55/4
f 29/56/5 1/1/5 27/53/5
f 15/26/6 30/58/6 31/60/6
f 13/23/7 8/12/7 14/24/7
f 12/20/8 9/14/8 15/27/8
f 1/1/9 12/20/9 15/27/9
f 5/6/10 13/23/10 14/24/10
f 1/1/11 31/59/11 27/53/11
f 9/15/6 32/62/6 30/58/6
f 11/18/7 16/29/7 8/12/7
f 10/16/8 17/33/8 9/14/8
f 24/48/12 25/49/12 36/72/12
f 20/40/13 37/73/13 33/63/13
f 23/46/14 33/64/14 35/69/14
f 25/49/15 34/67/15 38/76/15
f 22/44/16 39/77/16 34/66/16
f 27/52/13 24/48/13 20/40/13
f 29/56/14 20/41/14 23/46/14
f 32/62/15 22/45/15 25/49/15
f 28/55/16 21/42/16 22/44/16
f 136/264/17 39/78/17 7/10/17
f 8/13/18 64/98/18 14/25/18
f 38/75/19 136/264/19 19/37/19
f 35/70/20 2/2/20 5/6/20
f 37/73/21 11/19/21 13/22/21
f 36/72/21 19/39/21 11/19/21
f 61/92/22 76/125/22 60/89/22
f 5/7/23 60/90/23 35/71/23
f 6/9/24 66/103/24 59/87/24
f 21/43/25 58/85/25 69/110/25
f 23/47/26 60/90/26 71/114/26
f 5/7/27 64/98/27 61/93/27
f 23/47/26 70/112/26 29/57/26
f 10/17/28 66/103/28 18/36/28
f 7/11/29 56/81/29 16/30/29
f 4/5/30 70/112/30 63/96/30
f 4/5/31 62/94/31 12/21/31
f 7/11/32 68/108/32 57/83/32
f 6/9/33 58/85/33 26/51/33
f 8/13/18 56/81/18 65/100/18
f 10/17/28 62/94/28 67/105/28
f 21/43/25 68/108/25 39/79/25
f 84/145/34 101/182/34 100/180/34
f 69/111/16 84/143/16 68/107/16
f 63/97/35 78/130/35 62/95/35
f 71/115/14 86/148/14 70/113/14
f 65/101/7 80/134/7 64/99/7
f 58/86/16 85/147/16 69/111/16
f 67/106/8 82/138/8 66/102/8
f 70/113/36 79/132/36 63/97/36
f 62/95/8 83/141/8 67/106/8
f 60/91/14 87/150/14 71/115/14
f 64/99/10 77/128/10 61/92/10
f 57/84/3 72/116/3 56/80/3
f 68/109/37 73/119/37 57/84/37
f 56/82/7 81/136/7 65/101/7
f 59/88/38 74/121/38 58/86/38
f 66/104/39 75/123/39 59/88/39
f 99/177/8 114/210/8 98/174/8
f 78/131/40 95/168/40 94/166/40
f 86/149/41 103/186/41 102/184/41
f 80/135/42 97/172/42 96/170/42
f 74/122/34 101/182/34 85/146/34
f 82/140/43 99/178/43 98/175/43
f 86/149/44 95/168/44 79/133/44
f 78/131/43 99/178/43 83/142/43
f 76/127/41 103/186/41 87/151/41
f 80/135/45 93/164/45 77/129/45
f 72/118/46 89/155/46 88/153/46
f 84/145/47 89/155/47 73/120/47
f 72/118/42 97/172/42 81/137/42
f 74/122/48 91/159/48 90/157/48
f 82/140/49 91/159/49 75/124/49
f 76/127/50 93/164/50 92/162/50
f 112/207/51 122/229/51 109/200/51
f 102/185/36 111/205/36 95/169/36
f 94/167/8 115/214/8 99/177/8
f 92/163/14 119/223/14 103/187/14
f 96/171/10 109/201/10 93/165/10
f 89/156/3 104/188/3 88/152/3
f 100/181/37 105/192/37 89/156/37
f 88/154/7 113/208/7 97/173/7
f 91/160/38 106/193/38 90/158/38
f 98/176/39 107/196/39 91/160/39
f 93/165/22 108/198/22 92/161/22
f 101/183/16 116/216/16 100/179/16
f 95/169/35 110/202/35 94/167/35
f 103/187/14 118/220/14 102/185/14
f 97/173/7 112/206/7 96/171/7
f 90/158/16 117/219/16 101/183/16
f 110/203/52 127/241/52 115/213/52
f 127/241/52 114/212/52 115/213/52
f 114/212/53 123/231/53 107/195/53
f 106/194/54 124/233/54 117/218/54
f 124/233/54 116/217/54 117/218/54
f 116/217/55 125/236/55 105/191/55
f 126/238/56 112/207/56 113/209/56
f 108/199/57 121/226/57 119/222/57
f 121/226/57 118/221/57 119/222/57
f 118/221/58 120/224/58 111/204/58
f 126/238/59 104/190/59 125/236/59
f 105/191/60 125/236/60 104/190/60
f 121/227/61 128/245/61 120/225/61
f 107/195/62 123/231/62 106/194/62
f 109/200/63 122/229/63 108/199/63
f 111/204/64 120/224/64 110/203/64
f 133/256/65 132/253/65 131/251/65
f 126/239/66 130/250/66 122/230/66
f 126/240/67 133/257/67 134/258/67
f 124/234/68 131/252/68 132/254/68
f 121/228/69 130/250/69 129/246/69
f 127/242/70 128/245/70 135/261/70
f 127/243/71 131/252/71 123/232/71
f 124/235/72 133/257/72 125/237/72
f 2/2/73 37/74/73 13/23/73
f 17/31/39 18/34/39 6/8/39
f 3/3/74 6/8/74 26/50/74
f 19/37/75 136/264/75 7/10/75
f 32/61/76 17/31/76 3/3/76
f 29/56/77 4/4/77 1/1/77
f 15/26/6 9/15/6 30/58/6
f 13/23/7 11/18/7 8/12/7
f 12/20/8 10/16/8 9/14/8
f 1/1/78 4/4/78 12/20/78
f 5/6/79 2/2/79 13/23/79
f 1/1/80 15/27/80 31/59/80
f 9/15/6 17/32/6 32/62/6
f 11/18/7 19/38/7 16/29/7
f 10/16/8 18/35/8 17/33/8
f 24/48/12 31/60/12 30/58/12
f 30/58/12 32/62/12 25/49/12
f 25/49/12 38/76/12 36/72/12
f 36/72/12 37/73/12 24/48/12
f 24/48/12 30/58/12 25/49/12
f 20/40/13 24/48/13 37/73/13
f 23/46/14 20/41/14 33/64/14
f 25/49/15 22/45/15 34/67/15
f 22/44/16 21/42/16 39/77/16
f 27/52/13 31/60/13 24/48/13
f 29/56/14 27/53/14 20/41/14
f 32/62/15 28/54/15 22/45/15
f 28/55/16 26/50/16 21/42/16
f 136/264/81 34/68/81 39/78/81
f 8/13/18 65/100/18 64/98/18
f 38/75/82 34/68/82 136/264/82
f 35/70/83 33/65/83 2/2/83
f 37/73/21 36/72/21 11/19/21
f 36/72/21 38/76/21 19/39/21
f 61/92/22 77/128/22 76/125/22
f 5/7/23 61/93/23 60/90/23
f 6/9/24 18/36/24 66/103/24
f 21/43/25 26/51/25 58/85/25
f 23/47/26 35/71/26 60/90/26
f 5/7/27 14/25/27 64/98/27
f 23/47/26 71/114/26 70/112/26
f 10/17/28 67/105/28 66/103/28
f 7/11/29 57/83/29 56/81/29
f 4/5/30 29/57/30 70/112/30
f 4/5/31 63/96/31 62/94/31
f 7/11/32 39/79/32 68/108/32
f 6/9/33 59/87/33 58/85/33
f 8/13/18 16/30/18 56/81/18
f 10/17/28 12/21/28 62/94/28
f 21/43/25 69/110/25 68/108/25
f 84/145/34 85/146/34 101/182/34
f 69/111/16 85/147/16 84/143/16
f 63/97/35 79/132/35 78/130/35
f 71/115/14 87/150/14 86/148/14
f 65/101/7 81/136/7 80/134/7
f 58/86/16 74/121/16 85/147/16
f 67/106/8 83/141/8 82/138/8
f 70/113/36 86/148/36 79/132/36
f 62/95/8 78/130/8 83/141/8
f 60/91/14 76/126/14 87/150/14
f 64/99/10 80/134/10 77/128/10
f 57/84/3 73/119/3 72/116/3
f 68/109/37 84/144/37 73/119/37
f 56/82/7 72/117/7 81/136/7
f 59/88/38 75/123/38 74/121/38
f 66/104/39 82/139/39 75/123/39
f 99/177/8 115/214/8 114/210/8
f 78/131/40 79/133/40 95/168/40
f 86/149/41 87/151/41 103/186/41
f 80/135/42 81/137/42 97/172/42
f 74/122/34 90/157/34 101/182/34
f 82/140/43 83/142/43 99/178/43
f 86/149/44 102/184/44 95/168/44
f 78/131/43 94/166/43 99/178/43
f 76/127/41 92/162/41 103/186/41
f 80/135/45 96/170/45 93/164/45
f 72/118/46 73/120/46 89/155/46
f 84/145/47 100/180/47 89/155/47
f 72/118/42 88/153/42 97/172/42
f 74/122/48 75/124/48 91/159/48
f 82/140/49 98/175/49 91/159/49
f 76/127/50 77/129/50 93/164/50
f 102/185/36 118/220/36 111/205/36
f 94/167/8 110/202/8 115/214/8
f 92/163/14 108/197/14 119/223/14
f 96/171/10 112/206/10 109/201/10
f 89/156/3 105/192/3 104/188/3
f 100/181/37 116/215/37 105/192/37
f 88/154/7 104/189/7 113/208/7
f 91/160/38 107/196/38 106/193/38
f 98/176/39 114/211/39 107/196/39
f 93/165/22 109/201/22 108/198/22
f 101/183/16 117/219/16 116/216/16
f 95/169/35 111/205/35 110/202/35
f 103/187/14 119/223/14 118/220/14
f 97/173/7 113/208/7 112/206/7
f 90/158/16 106/193/16 117/219/16
f 110/203/84 120/224/84 127/241/84
f 127/241/85 123/231/85 114/212/85
f 106/194/86 123/231/86 124/233/86
f 124/233/87 125/236/87 116/217/87
f 126/238/88 122/229/88 112/207/88
f 108/199/89 122/229/89 121/226/89
f 121/226/90 120/224/90 118/221/90
f 126/238/56 113/209/56 104/190/56
f 121/227/61 129/247/61 128/245/61
f 135/262/91 128/244/91 131/251/91
f 128/244/92 129/248/92 130/249/92
f 131/251/93 130/249/93 133/256/93
f 130/249/94 134/259/94 133/256/94
f 128/244/93 130/249/93 131/251/93
f 126/239/66 134/260/66 130/250/66
f 126/240/67 125/237/67 133/257/67
f 124/234/68 123/232/68 131/252/68
f 121/228/69 122/230/69 130/250/69
f 127/242/70 120/225/70 128/245/70
f 127/243/71 135/263/71 131/252/71
f 124/235/72 132/255/72 133/257/72
f 2/2/95 33/65/95 37/74/95
l 4 40
l 5 41
l 6 42
l 7 43
l 8 44
l 10 45
l 12 46
l 14 47
l 16 48
l 18 49
l 21 50
l 23 51
l 26 52
l 29 53
l 35 54
l 39 55
