# Blender 3.5.1
# www.blender.org
mtllib rod.mtl
o Cube
v 0.113953 -0.500000 -0.113953
v -0.113953 -0.500000 0.113953
v 0.113953 -0.500000 0.113953
v -0.113953 -0.500000 -0.113953
v 0.000000 -0.500000 0.156937
v -0.156937 -0.500000 -0.000000
v 0.156937 -0.500000 -0.000000
v 0.000000 -0.500000 -0.156937
v 0.113953 0.500000 -0.113953
v -0.113953 0.500000 0.113953
v 0.113953 0.500000 0.113953
v -0.113953 0.500000 -0.113953
v 0.000000 0.500000 0.156937
v -0.156937 0.500000 -0.000000
v 0.156937 0.500000 -0.000000
v 0.000000 0.500000 -0.156937
vn -0.0000 -1.0000 -0.0000
vn -0.0000 1.0000 -0.0000
vn 0.3529 -0.0000 -0.9356
vn 0.9356 -0.0000 0.3529
vn -0.9356 -0.0000 -0.3529
vn -0.3529 -0.0000 0.9356
vn -0.3529 -0.0000 -0.9356
vn 0.9356 -0.0000 -0.3529
vn -0.9356 -0.0000 0.3529
vn 0.3529 -0.0000 0.9356
vt 0.000000 0.000000
vt 0.000000 0.000000
vt 0.000000 0.000000
vt 0.000000 0.000000
vt 0.000000 0.000000
vt 0.000000 0.000000
vt 0.000000 0.000000
vt 0.000000 0.000000
vt 0.000000 0.000000
vt 0.000000 0.000000
vt 0.000000 0.000000
vt 0.000000 0.000000
vt 0.000000 0.000000
vt 0.000000 0.000000
vt 0.000000 0.000000
vt 0.000000 0.000000
s 0
usemtl Material
f 8/8/1 7/7/1 5/5/1
f 14/14/2 15/15/2 16/16/2
f 8/8/3 9/9/3 1/1/3
f 7/7/4 11/11/4 3/3/4
f 6/6/5 12/12/5 4/4/5
f 5/5/6 10/10/6 2/2/6
f 4/4/7 16/16/7 8/8/7
f 1/1/8 15/15/8 7/7/8
f 2/2/9 14/14/9 6/6/9
f 3/3/10 13/13/10 5/5/10
f 3/3/1 5/5/1 7/7/1
f 5/5/1 2/2/1 6/6/1
f 8/8/1 6/6/1 4/4/1
f 5/5/1 6/6/1 8/8/1
f 8/8/1 1/1/1 7/7/1
f 10/10/2 13/13/2 14/14/2
f 13/13/2 11/11/2 15/15/2
f 15/15/2 9/9/2 16/16/2
f 16/16/2 12/12/2 14/14/2
f 13/13/2 15/15/2 14/14/2
f 8/8/3 16/16/3 9/9/3
f 7/7/4 15/15/4 11/11/4
f 6/6/5 14/14/5 12/12/5
f 5/5/6 13/13/6 10/10/6
f 4/4/7 12/12/7 16/16/7
f 1/1/8 9/9/8 15/15/8
f 2/2/9 10/10/9 14/14/9
f 3/3/10 11/11/10 13/13/10
