# Blender 3.5.1
# www.blender.org
mtllib Laser.mtl
o Cube
v 0.609568 -0.500000 -0.609568
v -0.609568 -0.499999 0.609568
v 0.609568 -0.500000 0.609568
v -0.609568 -0.499999 -0.609568
v 0.000000 -0.500000 0.839506
v -0.839506 -0.499999 -0.000000
v 0.839506 -0.500000 -0.000000
v 0.000000 -0.500000 -0.839506
v 0.609568 0.500000 -0.609568
v -0.609568 0.500000 0.609568
v 0.609568 0.500000 0.609568
v -0.609568 0.500000 -0.609568
v 0.000000 0.500000 0.839506
v -0.839506 0.500000 -0.000000
v 0.839506 0.500000 -0.000000
v 0.000000 0.500000 -0.839506
vn -0.0000 -1.0000 -0.0000
vn -0.0000 1.0000 -0.0000
vn -0.3529 -0.0000 -0.9356
vn 0.9356 -0.0000 -0.3529
vn -0.9356 -0.0000 0.3529
vn 0.3529 -0.0000 0.9356
vn 0.3529 -0.0000 -0.9356
vn 0.9356 -0.0000 0.3529
vn -0.9356 -0.0000 -0.3529
vn -0.3529 -0.0000 0.9356
vt -nan -nan
vt -nan -nan
vt -nan -nan
vt -nan -nan
vt -nan -nan
vt -nan -nan
vt -nan -nan
vt -nan -nan
vt -nan -nan
vt -nan -nan
vt -nan -nan
vt -nan -nan
vt -nan -nan
vt -nan -nan
vt -nan -nan
vt -nan -nan
vt -nan -nan
vt -nan -nan
vt -nan -nan
vt -nan -nan
vt -nan -nan
vt -nan -nan
vt -nan -nan
vt -nan -nan
vt -nan -nan
vt -nan -nan
vt -nan -nan
vt -nan -nan
vt -nan -nan
vt -nan -nan
vt -nan -nan
vt -nan -nan
vt -nan -nan
vt -nan -nan
vt -nan -nan
vt -nan -nan
vt -nan -nan
vt -nan -nan
vt -nan -nan
vt -nan -nan
vt -nan -nan
vt -nan -nan
vt -nan -nan
vt -nan -nan
vt -nan -nan
vt -nan -nan
vt -nan -nan
vt -nan -nan
vt -nan -nan
vt -nan -nan
vt -nan -nan
vt -nan -nan
vt -nan -nan
vt -nan -nan
vt -nan -nan
vt -nan -nan
vt -nan -nan
vt -nan -nan
vt -nan -nan
vt -nan -nan
vt -nan -nan
vt -nan -nan
vt -nan -nan
vt -nan -nan
vt -nan -nan
vt -nan -nan
vt -nan -nan
vt -nan -nan
vt -nan -nan
vt -nan -nan
vt -nan -nan
vt -nan -nan
vt -nan -nan
vt -nan -nan
vt -nan -nan
vt -nan -nan
vt -nan -nan
vt -nan -nan
vt -nan -nan
vt -nan -nan
vt -nan -nan
vt -nan -nan
vt -nan -nan
vt -nan -nan
s 0
usemtl Material
f 8/36/1 7/30/1 5/18/1
f 14/65/2 15/72/2 16/79/2
f 4/14/3 16/80/3 8/37/3
f 1/1/4 15/73/4 7/31/4
f 2/5/5 14/66/5 6/24/5
f 3/10/6 13/58/6 5/19/6
f 8/38/7 9/43/7 1/2/7
f 7/32/8 11/50/8 3/11/8
f 6/25/9 12/54/9 4/15/9
f 2/6/10 13/59/10 10/47/10
f 3/12/1 5/20/1 7/33/1
f 5/21/1 2/7/1 6/26/1
f 8/39/1 6/27/1 4/16/1
f 5/22/1 6/28/1 8/40/1
f 8/41/1 1/3/1 7/34/1
f 10/48/2 13/60/2 14/67/2
f 13/61/2 11/51/2 15/74/2
f 15/75/2 9/44/2 16/81/2
f 16/82/2 12/55/2 14/68/2
f 13/62/2 15/76/2 14/69/2
f 4/17/3 12/56/3 16/83/3
f 1/4/4 9/45/4 15/77/4
f 2/8/5 10/49/5 14/70/5
f 3/13/6 11/52/6 13/63/6
f 8/42/7 16/84/7 9/46/7
f 7/35/8 15/78/8 11/53/8
f 6/29/9 14/71/9 12/57/9
f 2/9/10 5/23/10 13/64/10
